<svg width="24" height="24" viewBox="0 0 24 24" fill="none" xmlns="http://www.w3.org/2000/svg">
<g clip-path="url(#clip0_1_2)">
<path d="M23.9428 19.8058C23.9192 19.7879 23.8918 19.7755 23.8627 19.7697C23.8336 19.7638 23.8036 19.7647 23.7749 19.7721C22.5149 17.9169 20.9022 16.1617 19.3563 14.4569L19.1042 14.1729C19.1026 14.0997 19.0375 14.0522 18.97 14.0225C18.9416 13.9948 18.9138 13.9667 18.8857 13.9388C18.8352 13.8383 18.7172 13.7715 18.5999 13.8383C18.1293 14.073 17.6931 14.4238 17.2725 14.7578C16.7189 15.1923 16.164 15.6273 15.6429 16.1118C15.4299 16.301 15.2332 16.5079 15.055 16.7303C14.9708 16.8471 15.0382 16.9475 15.1393 16.9975C14.7692 17.3652 14.3991 17.7335 14.0303 18.1173C13.9965 18.1537 13.9783 18.2019 13.9797 18.2515C13.9797 18.3015 14.0134 18.3515 14.0465 18.3683L14.7024 18.8695V18.8864C15.6261 19.8058 17.2562 21.0593 18.9868 22.4132C19.2383 22.6142 19.5073 22.8146 19.7595 23.0149C19.8768 23.1491 19.9941 23.2996 20.0952 23.4331C20.1458 23.4993 20.2637 23.5168 20.3305 23.4662C20.3642 23.4999 20.4148 23.533 20.4485 23.5667C20.479 23.5853 20.5133 23.5968 20.5489 23.6004C20.5752 23.6018 20.6014 23.5964 20.6251 23.5847C20.6487 23.573 20.6689 23.5554 20.6837 23.5336C20.7021 23.5031 20.7135 23.4687 20.7168 23.4332C20.7343 23.4332 20.7337 23.45 20.7505 23.45C20.8003 23.4513 20.8486 23.4332 20.8853 23.3995L23.9433 20.073C24.0631 19.9571 23.9568 19.8062 23.9428 19.8058ZM16.3151 19.6722L14.7692 18.5018L14.6182 18.402C14.5845 18.3851 14.5508 18.3514 14.5171 18.3352L14.3997 18.2347C15.0594 17.5757 15.7294 16.9273 16.3993 16.279C15.9119 16.7634 14.9371 18.1847 15.1387 18.6523C15.141 18.6523 15.1573 18.6942 15.2061 18.7365C15.5765 19.0475 15.9459 19.3597 16.3151 19.6722ZM20.4148 22.7983L19.1378 21.8283C18.6319 21.3057 18.1049 20.8038 17.5583 20.3239C18.2473 20.842 18.8352 21.2933 18.9194 21.3769C19.5916 21.9619 19.5573 21.8619 20.0116 22.2465L20.5658 22.6473C20.4923 22.7503 20.4148 22.795 20.4148 22.7983ZM20.7505 23.0486L20.7168 23.0318C20.7674 22.9987 20.8179 22.965 20.8685 22.915L20.7505 23.0486ZM0.5885 3.4751C0.6216 3.6923 0.6728 3.9095 0.7059 4.1105C0.9074 5.2135 1.109 6.2166 1.4785 6.9688L1.6301 7.5368C1.6807 7.7541 1.7643 8.0218 1.8486 8.0887C2.7054 8.8408 4.016 9.9601 5.4271 11.0306C5.4583 11.055 5.49676 11.0682 5.53635 11.0682C5.57594 11.0682 5.6144 11.055 5.6456 11.0306C5.6456 11.0306 5.6456 11.0468 5.6624 11.0468C5.67722 11.0633 5.69545 11.0764 5.71583 11.0851C5.7362 11.0938 5.75824 11.098 5.7804 11.0974C5.82997 11.0986 5.87805 11.0804 5.9145 11.0468C7.7125 9.0581 9.0563 7.4201 10.0142 6.0494C10.0816 5.9826 10.0985 5.8821 10.0985 5.7984C10.1653 5.7316 10.2158 5.648 10.2832 5.598C10.35 5.5312 10.35 5.414 10.2832 5.3634L10.2664 5.3471C10.2664 5.3141 10.2495 5.2635 10.2158 5.2466C9.7958 4.8459 9.4938 4.5618 9.1742 4.261C8.37694 3.51697 7.59276 2.75905 6.822 1.9876C6.8051 1.9707 6.7883 1.9539 6.7546 1.9539C6.4188 1.8371 5.7298 1.7198 4.8729 1.5694C3.596 1.3527 1.865 1.0519 0.3027 0.583C0.3027 0.583 0.2016 0.583 0.1847 0.5999L0.1348 0.6505C0.0498 0.7139 0.0222 0.7058 0 0.7167C0.017 0.8172 0.017 0.884 0.0506 1.0013C0.0506 1.0344 0.1179 1.3022 0.1179 1.3353L0.5885 3.4751ZM7.7794 8.2553L7.7457 8.289C7.74629 8.28025 7.75002 8.27202 7.75622 8.26582C7.76242 8.25962 7.77065 8.25589 7.7794 8.2553ZM6.553 2.238C6.654 2.3385 7.0741 2.7399 7.1746 2.8235C6.7377 2.6225 5.6462 2.1213 5.1413 1.954C5.6456 2.0545 6.3346 2.155 6.553 2.238ZM0.7901 1.4027C1.0422 1.8371 1.2438 3.3415 1.4454 4.8122C1.3274 4.344 1.2438 3.8765 1.1427 3.4414C0.9917 2.673 0.84 1.9876 0.6385 1.3858C0.7617 1.3858 0.7901 1.407 0.7901 1.4027ZM0.5043 1.0344C0.5043 1.0182 0.5043 1.0014 0.4874 1.0014C0.5717 1.0014 0.6216 1.0182 0.689 1.0513C0.6896 1.057 0.5442 1.0344 0.5043 1.0344ZM23.6738 0.8172C23.6907 0.751 23.338 0.4502 23.4554 0.4327C23.7081 0.4164 23.7081 0.0319004 23.4554 0.0319004C23.1196 0.0488004 22.767 0.1318 22.4474 0.1823C21.8596 0.2991 21.2548 0.4164 20.6664 0.5494C19.3394 0.834 18.0289 1.1349 16.7183 1.4864C16.3151 1.6031 15.8613 1.6867 15.4751 1.8871C15.3403 1.9539 15.3571 2.0875 15.4245 2.1711C15.3908 2.188 15.374 2.188 15.3403 2.2048C15.2229 2.2217 15.1218 2.2385 15.0045 2.2548C14.9034 2.2716 14.8529 2.3552 14.8697 2.4558C14.8697 2.472 14.8866 2.5057 14.8866 2.5219C14.1807 3.4582 13.3912 4.4445 12.5343 5.4976C11.6943 6.467 10.8037 7.4869 9.9131 8.54C7.0735 11.8496 3.8644 15.6105 0.3195 18.92C0.303605 18.9351 0.290945 18.9532 0.282294 18.9733C0.273643 18.9935 0.269182 19.0151 0.269182 19.0371C0.269182 19.059 0.273643 19.0806 0.282294 19.1008C0.290945 19.1209 0.303605 19.139 0.3195 19.1541C0.3364 19.1704 0.3532 19.1872 0.3701 19.1872C0.3195 19.2378 0.269 19.2715 0.2184 19.3208C0.1847 19.3545 0.1679 19.3876 0.1679 19.4213C0.141629 19.4458 0.119118 19.474 0.1011 19.505C0.0337 19.5717 0.0337 19.6885 0.118 19.739C0.1847 19.8052 0.3027 19.8052 0.3526 19.7222C0.3701 19.7053 0.3701 19.6885 0.3863 19.6885C0.435771 19.6402 0.502188 19.6131 0.57135 19.6131C0.640512 19.6131 0.706929 19.6402 0.7564 19.6885C0.958 19.9063 1.1596 20.1235 1.3444 20.3071L0.9243 19.9563C0.8569 19.8895 0.7396 19.9063 0.6896 19.9731C0.6216 20.0393 0.6385 20.1566 0.7059 20.2071L5.175 23.9344C5.2087 23.9681 5.2424 23.9681 5.293 23.9681C5.3435 23.9681 5.3772 23.9512 5.4103 23.9175L5.5113 23.8176C5.5283 23.8339 5.5613 23.8339 5.5782 23.8339C5.6287 23.8339 5.6624 23.8176 5.6962 23.7839C11.7448 17.7334 16.6178 13.1698 22.1959 9.0912C22.2459 9.0581 22.2627 8.9912 22.2627 8.9407C22.3301 8.9407 22.3807 8.8907 22.4137 8.824C23.4391 5.6985 23.6407 2.9233 23.7075 1.5531C23.7075 1.4952 23.7244 1.516 23.7244 1.4863C23.7412 1.4526 23.7412 1.4358 23.7412 1.4358C23.7868 1.22782 23.7628 1.01064 23.6738 0.8172ZM12.8538 5.7316C13.1222 5.4308 13.3912 5.113 13.6602 4.829C11.9296 7.1024 9.0569 10.5955 4.9902 14.7578C7.7626 11.699 10.5515 8.54 12.8538 5.7316ZM5.1414 23.4662C5.1252 23.4494 5.1252 23.4494 5.1414 23.4494V23.4662ZM7.6447 21.3102C7.7795 21.1597 7.9142 21.0262 8.0653 20.8757C8.0653 20.8757 8.0653 20.892 8.0821 20.892C7.8585 21.0898 7.6487 21.3102 7.6447 21.3102ZM8.3343 20.6416C8.4337 20.5423 8.4743 20.4692 8.6195 20.3239C9.6112 19.3046 10.6359 18.2846 11.6775 17.2484L11.6944 17.2316C11.9465 17.0312 12.2486 16.8139 12.5176 16.613C11.1061 17.9381 9.71158 19.281 8.3343 20.6416ZM14.853 3.9096C14.2987 4.6286 13.6771 5.5812 13.156 6.3334C11.5097 8.7067 6.2167 14.5069 6.0994 14.6074C4.49057 16.1441 2.87743 17.6763 1.26 19.204L1.1595 19.3045C1.0752 19.204 1.0752 19.0535 1.1763 18.9699C8.6523 11.9662 13.1895 6.1329 15.0213 3.5755C14.9707 3.6922 14.9372 3.7922 14.853 3.9096ZM17.7594 7.3365C17.0878 6.9514 16.7689 6.3496 16.953 5.7653L17.0036 5.5643C17.0249 5.50558 17.0531 5.44964 17.0878 5.3977C17.2726 5.0967 17.5416 4.8459 17.8442 4.6954C17.8605 4.6954 17.8773 4.6954 17.8942 4.6786C17.8773 4.6449 17.8773 4.5949 17.8773 4.545C17.8942 4.4445 17.9616 4.3777 18.0789 4.3777C18.2805 4.3777 18.9027 4.5618 19.1379 4.7622C19.2048 4.8122 19.2722 4.879 19.3396 4.9458C19.4238 5.0462 19.558 5.2135 19.6248 5.3471C19.6585 5.364 19.6922 5.5312 19.7428 5.6149C19.7764 5.7485 19.8095 5.8989 19.7933 6.0325C19.7764 6.0494 19.7933 6.1492 19.7764 6.1492C19.747 6.36823 19.6726 6.57883 19.558 6.7678C19.5273 6.7985 19.5644 6.7797 19.5075 6.8346C19.4232 6.9688 19.3059 7.0856 19.1885 7.1692C18.8016 7.4364 18.3647 7.52 17.9279 7.4032C17.8174 7.3559 17.7607 7.3365 17.7594 7.3365ZM22.1286 8.7404C22.1286 8.7572 22.1118 8.7903 22.1286 8.8071C22.0949 8.8071 22.0781 8.824 22.0444 8.8408C20.717 9.8097 19.4232 10.8296 18.1294 11.8664C19.2384 10.8796 20.3474 9.877 21.507 8.8908C21.8428 8.5899 22.0781 8.2054 22.1449 7.7709L22.3134 6.7679V6.7347C22.3976 6.5337 22.7166 6.6174 22.666 6.8347C22.6618 6.8335 22.4929 7.6297 22.1286 8.7404Z" fill="#7B64EE"/>
</g>
<defs>
<clipPath id="clip0_1_2">
<rect width="24" height="24" fill="white"/>
</clipPath>
</defs>
</svg>
